<?xml version="1.0" standalone="no"?><!DOCTYPE svg PUBLIC "-//W3C//DTD SVG 1.1//EN" "http://www.w3.org/Graphics/SVG/1.1/DTD/svg11.dtd"><svg t="1480939493439" class="icon" style="" viewBox="0 0 1024 1024" version="1.1" xmlns="http://www.w3.org/2000/svg" p-id="5649" xmlns:xlink="http://www.w3.org/1999/xlink" width="200" height="200"><defs><style type="text/css"></style></defs><path d="M756.374462 988.571921h-98.829059a22.375124 22.375124 0 0 1-22.371927-22.880235l11.518441-513.397046-127.799394-86.351547a22.36873 22.36873 0 0 1-6.077313-6.109282 22.394306 22.394306 0 0 1-4.648297-14.910356l15.249228-281.193194a22.378321 22.378321 0 0 1 22.346352-21.166694h54.993125a22.378321 22.378321 0 0 1 22.378321 22.378321v189.835297h25.306684l4.561981-190.372377a22.378321 22.378321 0 0 1 22.371927-21.844438h60.076201a22.378321 22.378321 0 0 1 22.371927 21.844438l4.558784 190.372377h25.309881V64.938691a22.378321 22.378321 0 0 1 22.378321-22.378321h57.534663a22.378321 22.378321 0 0 1 22.355943 21.368099l12.707689 281.193194c0.015985 0.335675 0.022378 0.67135 0.022379 1.010222v1.265973a22.378321 22.378321 0 0 1-9.712192 18.449328l-125.743785 86.338759 11.521638 513.502544a22.378321 22.378321 0 0 1-22.381518 22.883432z m-75.945627-44.756642h53.058999l-11.278674-502.722588a22.371927 22.371927 0 0 1 9.705797-18.951241l125.529594-86.188504-11.237114-248.629541h-13.765865v189.835298a22.378321 22.378321 0 0 1-22.378321 22.378321h-69.535837a22.378321 22.378321 0 0 1-22.371927-21.844439l-4.558784-190.372376h-16.377734l-4.56198 190.372376a22.378321 22.378321 0 0 1-22.371928 21.844439h-69.53264a22.378321 22.378321 0 0 1-22.378321-22.378321V87.317012h-11.416141l-13.44937 247.996553 128.358852 86.728781a22.371927 22.371927 0 0 1 9.843264 19.047149l-11.28187 502.725784zM347.976498 59.740526c-0.386825-11.208342-8.976904-20.175655-19.772845-21.435234a22.592514 22.592514 0 0 0-3.503806-0.300509c-1.038993 0-2.062002 0.063938-3.094602 0.079922a22.151341 22.151341 0 0 0-3.219281 0.08312C208.754569 41.521376 120.587181 131.690025 120.587181 242.120646v188.441447a22.378321 22.378321 0 0 0 22.378321 22.378321h91.309944l-14.865599 512.604215a22.378321 22.378321 0 0 0 22.36873 23.027292h114.896694a22.378321 22.378321 0 0 0 22.365533-23.145578l-31.064306-905.685817zM204.266117 137.943168c-13.903331 27.790678-21.550323 59.014829-21.550323 91.754313v178.486291H165.343823V242.120646c0-39.807836 14.702557-76.220561 38.922294-104.177478z m60.549343 805.872111l14.862402-512.604215c0.003197-0.108695-0.009591-0.217389-0.006394-0.326084 0-0.108695 0.015985-0.214193 0.015985-0.322887 0-0.271737-0.031969-0.53708-0.04156-0.808816-0.012788-0.390022-0.025575-0.780044-0.057544-1.16687-0.031969-0.367644-0.083119-0.725697-0.13427-1.086947-0.05115-0.380431-0.102301-0.760863-0.172633-1.138098-0.067135-0.36125-0.156648-0.712909-0.242965-1.067765-0.086316-0.36125-0.172633-0.7225-0.27813-1.077356a20.281153 20.281153 0 0 0-0.351659-1.051782c-0.118285-0.338872-0.233374-0.677743-0.367644-1.007024-0.140664-0.348462-0.300509-0.684137-0.457157-1.023009-0.147058-0.316493-0.294115-0.636184-0.453961-0.943086-0.172633-0.332478-0.364447-0.652168-0.553064-0.975056-0.17583-0.297312-0.348462-0.597821-0.53708-0.885542a25.853355 25.853355 0 0 0-0.63938-0.911117c-0.204602-0.281327-0.406007-0.562655-0.623396-0.834392-0.22698-0.284524-0.469945-0.556261-0.71291-0.831195-0.233374-0.265343-0.466748-0.530686-0.712909-0.783241-0.249358-0.255752-0.511504-0.498717-0.770454-0.744878a21.508763 21.508763 0 0 0-0.799225-0.725697c-0.26854-0.22698-0.54667-0.437976-0.824801-0.652169-0.290918-0.223783-0.581836-0.450763-0.885542-0.661758-0.284524-0.198208-0.578639-0.380431-0.875952-0.565852a22.218476 22.218476 0 0 0-0.952677-0.57864c-0.303706-0.172633-0.620199-0.326084-0.933496-0.482732-0.332478-0.166239-0.664956-0.335675-1.007024-0.485929-0.326084-0.143861-0.661759-0.26854-0.997434-0.399613-0.345266-0.131073-0.687334-0.265343-1.038993-0.380432-0.351659-0.115089-0.709712-0.210996-1.067766-0.306902-0.351659-0.095907-0.700122-0.195011-1.061372-0.271737-0.370841-0.083119-0.751272-0.143861-1.131703-0.207799-0.358053-0.060741-0.716106-0.121482-1.08375-0.166239-0.383628-0.044757-0.773651-0.067135-1.163673-0.09271-0.26854-0.015985-0.533883-0.057544-0.80562-0.063938-0.108695-0.003197-0.214193 0.009591-0.322887 0.006394-0.108695 0-0.217389-0.015985-0.326084-0.015985h-29.839893V229.697481c0-56.866511 29.456264-107.930642 76.87273-136.424639l29.17174 850.542437H264.81546z" fill="#009FE8" p-id="5650"></path></svg>